<svg xmlns="http://www.w3.org/2000/svg" viewBox="0 0 512 512"><path fill="#f0f0f0" d="M0 85.3h512v341.4H0z"/><path fill="#d80027" d="M288 85.3h-64V224H0v64h224v138.7h64V288h224v-64H288z"/><path fill="#0052b4" d="M393.8 315.4 512 381v-65.6zm-82.1 0L512 426.7v-31.5l-143.7-79.8zm147 111.3-147-81.7v81.7z"/><path fill="#f0f0f0" d="M311.7 315.4 512 426.7v-31.5l-143.7-79.8z"/><path fill="#d80027" d="M311.7 315.4 512 426.7v-31.5l-143.7-79.8z"/><path fill="#0052b4" d="M90.3 315.4 0 365.5v-50.1zm110 14.1v97.2H25.5z"/><path fill="#d80027" d="M143.7 315.4 0 395.2v31.5l200.3-111.3z"/><path fill="#0052b4" d="M118.2 196.6 0 131v65.6zm82.1 0L0 85.3v31.5l143.7 79.8zM53.3 85.3l147 81.7V85.3z"/><path fill="#f0f0f0" d="M200.3 196.6 0 85.3v31.5l143.7 79.8z"/><path fill="#d80027" d="M200.3 196.6 0 85.3v31.5l143.7 79.8z"/><path fill="#0052b4" d="m421.7 196.6 90.3-50.2v50.2zm-110-14.1V85.3h174.8z"/><path fill="#d80027" d="M368.3 196.6 512 116.8V85.3L311.7 196.6z"/></svg>